<?xml version="1.0" standalone="no"?>
<!DOCTYPE svg PUBLIC "-//W3C//DTD SVG 20010904//EN"
 "http://www.w3.org/TR/2001/REC-SVG-20010904/DTD/svg10.dtd">
<svg version="1.0" xmlns="http://www.w3.org/2000/svg"
 width="24.000000pt" height="24.000000pt" viewBox="0 0 24.000000 24.000000"
 preserveAspectRatio="xMidYMid meet">

<g transform="translate(0.000000,24.000000) scale(0.100000,-0.100000)"
fill="#000000" stroke="none">
<path d="M96 204 c-9 -8 -16 -22 -16 -29 0 -15 27 -45 40 -45 13 0 40 30 40
45 0 15 -27 45 -40 45 -5 0 -16 -7 -24 -16z m48 -17 c16 -25 -16 -56 -38 -37
-19 15 -20 32 -4 48 15 15 28 11 42 -11z"/>
<path d="M108 103 c6 -2 18 -2 25 0 6 3 1 5 -13 5 -14 0 -19 -2 -12 -5z"/>
<path d="M175 94 c-9 -9 -14 -23 -10 -32 3 -8 -2 -23 -10 -32 -10 -11 -12 -20
-6 -24 14 -9 33 31 26 53 -3 10 1 24 10 31 21 18 48 -5 40 -34 -5 -17 -4 -18
4 -6 14 20 14 26 -5 44 -20 20 -29 20 -49 0z"/>
<path d="M50 75 c-31 -33 -17 -48 41 -42 l44 4 -47 1 c-55 2 -59 12 -22 41 15
12 22 21 17 21 -5 0 -20 -11 -33 -25z"/>
</g>
</svg>
