<svg width="24" height="24" viewBox="0 0 24 24" fill="none" xmlns="http://www.w3.org/2000/svg">
<path d="M12.1101 3.05933C8.8223 3.05933 6.15038 5.72205 6.15038 8.9985V11.8592C6.15038 12.463 5.89213 13.3836 5.58421 13.8983L4.44194 15.7889C3.73671 16.957 4.22342 18.2537 5.51468 18.6892C9.79572 20.1146 14.4145 20.1146 18.6955 18.6892C19.8974 18.2933 20.4238 16.8778 19.7682 15.7889L18.626 13.8983C18.328 13.3836 18.0697 12.463 18.0697 11.8592V8.9985C18.0697 5.73195 15.3879 3.05933 12.1101 3.05933Z" stroke="#787486" stroke-width="1.5" stroke-miterlimit="10" stroke-linecap="round"/>
<path d="M13.9476 3.34638C13.6397 3.25729 13.3218 3.188 12.994 3.1484C12.0405 3.02962 11.1267 3.09891 10.2725 3.34638C10.5605 2.61388 11.2757 2.09915 12.11 2.09915C12.9444 2.09915 13.6595 2.61388 13.9476 3.34638Z" stroke="#787486" stroke-width="1.5" stroke-miterlimit="10" stroke-linecap="round" stroke-linejoin="round"/>
<path d="M15.09 19.0456C15.09 20.6789 13.7491 22.0152 12.1102 22.0152C11.2957 22.0152 10.5408 21.6786 10.0045 21.1441C9.46809 20.6096 9.13037 19.8573 9.13037 19.0456" stroke="#787486" stroke-width="1.5" stroke-miterlimit="10"/>
</svg>
