<svg width="25" height="24" viewBox="0 0 25 24" fill="none" xmlns="http://www.w3.org/2000/svg">
<path d="M12.4557 14.8406C14.1014 14.8406 15.4356 13.5111 15.4356 11.871C15.4356 10.231 14.1014 8.90143 12.4557 8.90143C10.81 8.90143 9.47589 10.231 9.47589 11.871C9.47589 13.5111 10.81 14.8406 12.4557 14.8406Z" stroke="#787486" stroke-width="1.5" stroke-miterlimit="10" stroke-linecap="round" stroke-linejoin="round"/>
<path d="M2.52295 12.7421V10.9999C2.52295 9.97048 3.36724 9.1192 4.41018 9.1192C6.20802 9.1192 6.94304 7.85218 6.03916 6.29809C5.52265 5.40722 5.83057 4.24908 6.73445 3.73435L8.45283 2.75439C9.23752 2.28915 10.2507 2.56632 10.7175 3.34831L10.8268 3.53638C11.7207 5.09046 13.1908 5.09046 14.0947 3.53638L14.2039 3.34831C14.6708 2.56632 15.6839 2.28915 16.4686 2.75439L18.187 3.73435C19.0909 4.24908 19.3988 5.40722 18.8823 6.29809C17.9784 7.85218 18.7134 9.1192 20.5112 9.1192C21.5443 9.1192 22.3985 9.96058 22.3985 10.9999V12.7421C22.3985 13.7715 21.5542 14.6228 20.5112 14.6228C18.7134 14.6228 17.9784 15.8899 18.8823 17.4439C19.3988 18.3447 19.0909 19.493 18.187 20.0077L16.4686 20.9876C15.6839 21.4529 14.6708 21.1757 14.2039 20.3937L14.0947 20.2057C13.2007 18.6516 11.7307 18.6516 10.8268 20.2057L10.7175 20.3937C10.2507 21.1757 9.23752 21.4529 8.45283 20.9876L6.73445 20.0077C5.83057 19.493 5.52265 18.3348 6.03916 17.4439C6.94304 15.8899 6.20802 14.6228 4.41018 14.6228C3.36724 14.6228 2.52295 13.7715 2.52295 12.7421Z" stroke="#787486" stroke-width="1.5" stroke-miterlimit="10" stroke-linecap="round" stroke-linejoin="round"/>
</svg>
