<svg width="27" height="20" viewBox="0 0 27 20" fill="none" xmlns="http://www.w3.org/2000/svg">
<path d="M18.7159 17.2089C18.5586 17.2089 18.4013 17.1511 18.2772 17.0274L12.8803 11.6492C12.0029 10.7748 12.0029 9.33948 12.8803 8.4651L18.2772 3.08685C18.5172 2.84764 18.9145 2.84764 19.1546 3.08685C19.3946 3.32607 19.3946 3.72201 19.1546 3.96123L13.7577 9.33948C13.3604 9.73542 13.3604 10.3788 13.7577 10.7748L19.1546 16.153C19.3946 16.3922 19.3946 16.7882 19.1546 17.0274C19.0304 17.1429 18.8731 17.2089 18.7159 17.2089Z" fill="#787486"/>
<path d="M12.7561 17.2089C12.5989 17.2089 12.4416 17.1511 12.3174 17.0274L6.92062 11.6492C6.04322 10.7748 6.04322 9.33948 6.92062 8.4651L12.3174 3.08685C12.5575 2.84764 12.9548 2.84764 13.1948 3.08685C13.4349 3.32607 13.4349 3.72201 13.1948 3.96123L7.79802 9.33948C7.40071 9.73542 7.40071 10.3788 7.79802 10.7748L13.1948 16.153C13.4349 16.3922 13.4349 16.7882 13.1948 17.0274C13.0707 17.1429 12.9134 17.2089 12.7561 17.2089Z" fill="#787486"/>
</svg>
