<svg width="25" height="24" viewBox="0 0 25 24" fill="none" xmlns="http://www.w3.org/2000/svg">
<path d="M7.48248 10.641H5.49592C3.09218 10.641 1.77112 9.32449 1.77112 6.92902V4.9493C1.77112 2.55384 3.09218 1.23732 5.49592 1.23732H7.48248C9.88621 1.23732 11.2073 2.55384 11.2073 4.9493V6.92902C11.2073 9.32449 9.88621 10.641 7.48248 10.641ZM5.49592 2.72211C3.92653 2.72211 3.26104 3.38532 3.26104 4.9493V6.92902C3.26104 8.49301 3.92653 9.15621 5.49592 9.15621H7.48248C9.05186 9.15621 9.71736 8.49301 9.71736 6.92902V4.9493C9.71736 3.38532 9.05186 2.72211 7.48248 2.72211H5.49592Z" fill="#787486"/>
<path d="M19.4018 10.641H17.4153C15.0116 10.641 13.6905 9.32449 13.6905 6.92902V4.9493C13.6905 2.55384 15.0116 1.23732 17.4153 1.23732H19.4018C21.8056 1.23732 23.1266 2.55384 23.1266 4.9493V6.92902C23.1266 9.32449 21.8056 10.641 19.4018 10.641ZM17.4153 2.72211C15.8459 2.72211 15.1804 3.38532 15.1804 4.9493V6.92902C15.1804 8.49301 15.8459 9.15621 17.4153 9.15621H19.4018C20.9712 9.15621 21.6367 8.49301 21.6367 6.92902V4.9493C21.6367 3.38532 20.9712 2.72211 19.4018 2.72211H17.4153Z" fill="#787486"/>
<path d="M19.4018 22.5193H17.4153C15.0116 22.5193 13.6905 21.2028 13.6905 18.8074V16.8276C13.6905 14.4322 15.0116 13.1157 17.4153 13.1157H19.4018C21.8056 13.1157 23.1266 14.4322 23.1266 16.8276V18.8074C23.1266 21.2028 21.8056 22.5193 19.4018 22.5193ZM17.4153 14.6005C15.8459 14.6005 15.1804 15.2637 15.1804 16.8276V18.8074C15.1804 20.3713 15.8459 21.0346 17.4153 21.0346H19.4018C20.9712 21.0346 21.6367 20.3713 21.6367 18.8074V16.8276C21.6367 15.2637 20.9712 14.6005 19.4018 14.6005H17.4153Z" fill="#787486"/>
<path d="M7.48248 22.5193H5.49592C3.09218 22.5193 1.77112 21.2028 1.77112 18.8074V16.8276C1.77112 14.4322 3.09218 13.1157 5.49592 13.1157H7.48248C9.88621 13.1157 11.2073 14.4322 11.2073 16.8276V18.8074C11.2073 21.2028 9.88621 22.5193 7.48248 22.5193ZM5.49592 14.6005C3.92653 14.6005 3.26104 15.2637 3.26104 16.8276V18.8074C3.26104 20.3713 3.92653 21.0346 5.49592 21.0346H7.48248C9.05186 21.0346 9.71736 20.3713 9.71736 18.8074V16.8276C9.71736 15.2637 9.05186 14.6005 7.48248 14.6005H5.49592Z" fill="#787486"/>
</svg>
