<svg width="25" height="24" viewBox="0 0 25 24" fill="none" xmlns="http://www.w3.org/2000/svg">
<path d="M17.3792 18.422H13.4061L8.98595 21.352C8.33039 21.7875 7.44638 21.3223 7.44638 20.5305V18.422C4.46654 18.422 2.47998 16.4423 2.47998 13.4727V7.53351C2.47998 4.56392 4.46654 2.5842 7.44638 2.5842H17.3792C20.359 2.5842 22.3456 4.56392 22.3456 7.53351V13.4727C22.3456 16.4423 20.359 18.422 17.3792 18.422Z" stroke="#787486" stroke-width="1.5" stroke-miterlimit="10" stroke-linecap="round" stroke-linejoin="round"/>
<path d="M12.4127 11.4236V11.2158C12.4127 10.5427 12.8299 10.1863 13.2471 9.89928C13.6544 9.62212 14.0616 9.26578 14.0616 8.61247C14.0616 7.7018 13.3266 6.96927 12.4127 6.96927C11.4989 6.96927 10.7639 7.7018 10.7639 8.61247" stroke="#787486" stroke-width="1.5" stroke-linecap="round" stroke-linejoin="round"/>
<path d="M12.4082 13.7894H12.4171" stroke="#787486" stroke-width="1.5" stroke-linecap="round" stroke-linejoin="round"/>
</svg>
