<svg width="25" height="25" viewBox="0 0 25 25" fill="none" xmlns="http://www.w3.org/2000/svg">
<path d="M8.97243 19.3106H8.47579C4.50267 19.3106 2.51611 18.3207 2.51611 13.3714V8.42213C2.51611 4.46268 4.50267 2.48296 8.47579 2.48296H16.422C20.3951 2.48296 22.3817 4.46268 22.3817 8.42213V13.3714C22.3817 17.3309 20.3951 19.3106 16.422 19.3106H15.9254C15.6175 19.3106 15.3195 19.4591 15.1308 19.7066L13.6408 21.6863C12.9853 22.5574 11.9125 22.5574 11.257 21.6863L9.76705 19.7066C9.60813 19.4888 9.24062 19.3106 8.97243 19.3106Z" stroke="#787486" stroke-width="1.5" stroke-miterlimit="10" stroke-linecap="round" stroke-linejoin="round"/>
<path d="M16.4185 11.3917H16.4274" stroke="#787486" stroke-width="2" stroke-linecap="round" stroke-linejoin="round"/>
<path d="M12.4444 11.3917H12.4534" stroke="#787486" stroke-width="2" stroke-linecap="round" stroke-linejoin="round"/>
<path d="M8.47031 11.3917H8.47923" stroke="#787486" stroke-width="2" stroke-linecap="round" stroke-linejoin="round"/>
</svg>
