<svg width="25" height="25" viewBox="0 0 25 25" fill="none" xmlns="http://www.w3.org/2000/svg">
<path d="M9.62798 11.2492C9.52866 11.2393 9.40946 11.2393 9.3002 11.2492C6.9362 11.17 5.0589 9.23976 5.0589 6.86409C5.0589 4.43893 7.02559 2.4691 9.46906 2.4691C11.9026 2.4691 13.8792 4.43893 13.8792 6.86409C13.8693 9.23976 11.992 11.17 9.62798 11.2492Z" stroke="#787486" stroke-width="1.5" stroke-linecap="round" stroke-linejoin="round"/>
<path d="M16.8293 4.44883C18.7562 4.44883 20.3057 6.00291 20.3057 7.91335C20.3057 9.78418 18.8158 11.3086 16.9584 11.3779C16.8789 11.368 16.7895 11.368 16.7001 11.3779" stroke="#787486" stroke-width="1.5" stroke-linecap="round" stroke-linejoin="round"/>
<path d="M4.66157 14.9018C2.25783 16.5053 2.25783 19.1186 4.66157 20.7123C7.39309 22.5336 11.8728 22.5336 14.6043 20.7123C17.008 19.1087 17.008 16.4954 14.6043 14.9018C11.8827 13.0903 7.40302 13.0903 4.66157 14.9018Z" stroke="#787486" stroke-width="1.5" stroke-linecap="round" stroke-linejoin="round"/>
<path d="M18.7463 20.2866C19.4614 20.1381 20.1369 19.8511 20.6931 19.4254C22.2426 18.2673 22.2426 16.3569 20.6931 15.1987C20.1468 14.783 19.4813 14.5058 18.7761 14.3474" stroke="#787486" stroke-width="1.5" stroke-linecap="round" stroke-linejoin="round"/>
</svg>
